# AST/ASF file generated using VICON BodyLanguage
# -----------------------------------------------
:version 1.10
:name VICON
:units
  mass 1.0
  length 0.45
  angle deg
:documentation
   .ast/.asf automatically generated from VICON data using
   VICON BodyBuilder and BodyLanguage model FoxedUp or BRILLIANT.MOD
:root
   order TX TY TZ RX RY RZ
   axis XYZ
   position 0 0 0  
   orientation 0 0 0 
:bonedata
  begin
     id 1 
     name lhipjoint
     direction 0.660183 -0.676772 0.325788 
     length 2.75133 
     axis 0 0 0  XYZ
  end
  begin
     id 2 
     name lfemur
     direction 0.34202 -0.939693 0  
     length 7.70317  
     axis 0 0 20  XYZ
    dof rx ry rz
    limits (-160.0 20.0)
           (-70.0 70.0)
           (-60.0 70.0)
  end
  begin
     id 3 
     name ltibia
     direction 0.342105 -0.939662 0   
     length 7.18701   
     axis 0 0 20   XYZ
    dof rx
    limits (-10.0 170.0)
  end
  begin
     id 4 
     name lfoot
     direction 0.14163 -0.389126 0.910232   
     length 2.41719   
     axis -90 7.62852e-016 20   XYZ
    dof rx rz
    limits (-45.0 90.0)
           (-70.0 20.0)
  end
  begin
     id 5 
     name ltoes
     direction 1.53533e-011 -4.21926e-011 1   
     length 1.18611   
     axis -90 7.62852e-016 20   XYZ
    dof rx
    limits (-90.0 20.0)
  end
  begin
     id 6 
     name rhipjoint
     direction -0.6658 -0.67229 0.323631   
     length 2.76968  
     axis 0 0 0  XYZ 
  end
  begin
     id 7 
     name rfemur
     direction -0.34202 -0.939693 0   
     length 7.92547   
     axis 0 0 -20   XYZ
    dof rx ry rz
    limits (-160.0 20.0)
           (-70.0 70.0)
           (-70.0 60.0)
  end
  begin
     id 8 
     name rtibia
     direction -0.342022 -0.939692 0   
     length 7.22641   
     axis 0 0 -20   XYZ
    dof rx
    limits (-10.0 170.0)
 end
 begin
     id 9 
     name rfoot
     direction -0.105675 -0.29034 0.951071   
     length 2.48149  
     axis -90 -7.62852e-016 -20   XYZ
    dof rx rz
    limits (-45.0 90.0)
           (-20.0 70.0)
  end
  begin
     id 10 
     name rtoes
     direction -1.5349e-011 -4.21859e-011 1   
     length 1.23343   
     axis -90 -7.62852e-016 -20   XYZ
    dof rx
    limits (-90.0 20.0)
  end
  begin
     id 11 
     name lowerback
     direction 0.0104173 0.993624 -0.112266   
     length 2.00527   
     axis 0 0 0   XYZ
    dof rx ry rz
    limits (-20.0 45.0)
           (-30.0 30.0)
           (-30.0 30.0)
  end
  begin
     id 12 
     name upperback
     direction 0.00733149 0.999856 -0.0152913   
     length 2.01385   
     axis 0 0 0   XYZ
    dof rx ry rz
    limits (-20.0 45.0)
           (-30.0 30.0)
           (-30.0 30.0)
  end
  begin
     id 13 
     name thorax
     direction 0.0026304 0.999318 0.036841   
     length 2.03734   
     axis 0 0 0   XYZ
    dof rx ry rz
    limits (-20.0 45.0)
           (-30.0 30.0)
           (-30.0 30.0)
  end
  begin
     id 14 
     name lowerneck
     direction 0.0293154 0.998757 0.0403082   
     length 1.65303   
     axis 0 0 0   XYZ
    dof rx ry rz
    limits (-20.0 45.0)
           (-30.0 30.0)
           (-30.0 30.0)
  end
  begin
     id 15 
     name upperneck
     direction -0.0376619 0.998184 -0.0470083   
     length 1.60926   
     axis 0 0 0   XYZ
    dof rx ry rz
    limits (-20.0 45.0)
           (-30.0 30.0)
           (-30.0 30.0)
  end
  begin
     id 16
     name head
     direction -0.0170133 0.999635 -0.0209778  
     length 1.73625  
     axis 0 0 0   XYZ
    dof rx ry rz
    limits (-20.0 45.0)
           (-30.0 30.0)
           (-30.0 30.0)
  end
  begin
     id 17 
     name lclavicle
     direction 0.919857 0.39181 -0.0186333  
     length 3.75313  
     axis 0 0 0   XYZ
    dof ry rz
    limits (-20.0 10.0)
           (0.0 20.0)
  end
  begin
     id 18 
     name lhumerus
     direction 1 -4.48988e-011 1.44029e-027   
     length 5.49313   
     axis 180 -30 -90   XYZ
    dof rx ry rz
    limits (-60.0 90.0)
           (-90.0 90.0)
           (-90.0 90.0)
  end
  begin
     id 19
     name lradius
     direction 1 -4.48924e-011 7.46281e-027   
     length 3.29037   
     axis 180 -30 -90   XYZ
    dof rx
    limits (-10.0 170.0)
  end
  begin
     id 20
     name lwrist
     direction 1 -4.48955e-011 2.19879e-026   
     length 1.64519   
     axis -1.34358e-014 90 90   XYZ
    dof ry
    limits (-180.0 0.0)
 end
  begin
     id 21 
     name lhand
     direction 1 -4.48978e-011 4.39747e-026   
     length 0.729656   
     axis -2.80598e-014 90 90   XYZ
    dof rx rz
    limits (-90.0 90.0)
           (-45.0 45.0)
  end
  begin
     id 22 
     name lfingers
     direction 1 -4.49071e-011 8.79411e-026   
     length 0.588268   
     axis -5.61193e-014 90 90   XYZ
    dof rx
    limits (0.0 90.0)
  end
  begin
     id 23
     name lthumb
     direction 0.707107 -6.34817e-011 0.707107   
     length 0.844638   
     axis -90 45 -9.86923e-015   XYZ
    dof rx rz
    limits (-45.0 45.0)
           (-45.0 45.0)
  end
  begin
     id 24 
     name rclavicle
     direction -0.919898 0.388279 0.0550233   
     length 3.7171  
     axis 0 0 0   XYZ 
    dof ry rz
    limits (-10.0 20.0)
           (-20.0 0.0)
  end
  begin
     id 25 
     name rhumerus
     direction -1 -4.48968e-011 9.98372e-028  
     length 5.23684   
     axis 180 30 90   XYZ
    dof rx ry rz
    limits (-90.0 60.0)
           (-90.0 90.0)
           (-90.0 90.0)
  end
  begin
     id 26 
     name rradius
     direction -1 -4.48956e-011 1.01023e-026   
     length 3.38251   
     axis 180 30 90   XYZ
    dof rx
    limits (-10.0 170.0)
  end
  begin
     id 27 
     name rwrist
     direction -1 -4.4892e-011 2.19886e-026   
     length 1.69126   
     axis -1.34358e-014 -90 -90   XYZ
    dof ry
    limits (-180.0 0.0)
  end
  begin
     id 28
     name rhand
     direction -1 -4.49024e-011 4.39727e-026   
     length 0.691454   
     axis -2.80598e-014 -90 -90   XYZ
    dof rx rz
    limits (-90.0 90.0)
           (-45.0 45.0)
  end
  begin
     id 29
     name rfingers
     direction -1 -4.49097e-011 8.79388e-026   
     length 0.557468   
     axis -5.61193e-014 -90 -90   XYZ
    dof rx
    limits (0.0 90.0)
  end
  begin
     id 30
     name rthumb
     direction -0.707107 -6.34938e-011 0.707107   
     length 0.800416   
     axis -90 -45 9.86923e-015   XYZ
    dof rx rz
    limits (-45.0 45.0)
           (-45.0 45.0)
  end
:hierarchy
  begin
    root lhipjoint rhipjoint lowerback
    lhipjoint lfemur
    lfemur ltibia
    ltibia lfoot
    lfoot ltoes
    rhipjoint rfemur
    rfemur rtibia
    rtibia rfoot
    rfoot rtoes
    lowerback upperback
    upperback thorax
    thorax lowerneck lclavicle rclavicle
    lowerneck upperneck
    upperneck head
    lclavicle lhumerus
    lhumerus lradius
    lradius lwrist
    lwrist lhand lthumb
    lhand lfingers
    rclavicle rhumerus
    rhumerus rradius
    rradius rwrist
    rwrist rhand rthumb
    rhand rfingers
  end

#!OML:ASF H:\BabyWalks\Project 1\Capture day 1\Session 1\baby.ASF
:FULLY-SPECIFIED
:DEGREES
1
root -36.8528 17.4865 -1.27764 -17.163 82.7908 -16.3625
lowerback 13.8705 -1.64642 -1.41974
upperback 4.61731 -2.06805 2.37673
thorax -2.76049 -0.959558 3.61453
lowerneck -4.28459 4.21103 -3.59864
upperneck -4.65945 5.79598 -1.32183
head -0.785497 2.99765 0.208702
rclavicle -1.47101e-014 2.06736e-014
rhumerus -39.6675 8.52655 -79.1344
rradius 37.1908
rwrist 3.18117
rhand -6.62717 -16.8271
rfingers 7.12502
rthumb 19.2294 -45.8964
lclavicle -1.47101e-014 2.06736e-014
lhumerus -44.3 3.6693 80.816
lradius 50.6672
lwrist 0.190524
lhand 2.8076 11.8083
lfingers 7.12502
lthumb 28.2767 39.6941
rfemur 3.38751 11.2044 25.343
rtibia 22.0831
rfoot -27.5725 -4.35388
rtoes 13.7343
lfemur -17.6968 -3.1074 -12.4778
ltibia 31.9011
lfoot -18.223 -8.13275
ltoes -8.57885
2
root -36.8517 17.4866 -1.27769 -17.0985 82.7659 -16.3139
lowerback 13.8493 -1.65045 -1.43933
upperback 4.63336 -2.07661 2.36012
thorax -2.73151 -0.964385 3.60828
lowerneck -3.75455 4.36487 -3.0691
upperneck -5.35404 5.93694 -2.00475
head -1.05029 3.082 -0.105782
rclavicle 3.8266e-014 -7.35503e-015
rhumerus -39.7067 9.03449 -79.4273
rradius 37.107
rwrist 3.00676
rhand -7.01621 -17.0576
rfingers 7.12502
rthumb 18.8552 -46.1637
lclavicle 3.8266e-014 -7.35503e-015
lhumerus -44.4204 3.53686 80.9053
lradius 50.8346
lwrist 0.373755
lhand 2.64573 11.8773
lfingers 7.12502
lthumb 28.122 39.7887
rfemur 3.36427 11.2239 25.3445
rtibia 22.1039
rfoot -27.4953 -4.36818
rtoes 13.5283
lfemur -17.6997 -3.11527 -12.4774
ltibia 31.9023
lfoot -18.2248 -8.07748
ltoes -8.64366
3
root -36.8517 17.488 -1.27975 -16.7262 82.664 -15.9822
lowerback 13.8357 -1.62535 -1.45824
upperback 4.62291 -2.0481 2.33715
thorax -2.73738 -0.9505 3.59015
lowerneck -3.12347 4.48853 -2.41612
upperneck -6.08733 6.02461 -2.84294
head -1.33893 3.14286 -0.494567
rclavicle 1.07344e-014 8.94531e-015
rhumerus -39.7957 9.60662 -79.7519
rradius 36.9956
rwrist 2.94143
rhand -7.4547 -17.2248
rfingers 7.12502
rthumb 18.4335 -46.3714
lclavicle 1.07344e-014 8.94531e-015
lhumerus -44.5921 3.43363 80.9874
lradius 51.0276
lwrist 0.577888
lhand 2.51875 11.9069
lfingers 7.12502
lthumb 28.0006 39.8381
rfemur 3.28731 11.2413 25.2948
rtibia 22.1253
rfoot -27.3941 -4.27854
rtoes 13.3102
lfemur -17.7187 -3.0792 -12.4895
ltibia 31.9087
lfoot -18.2142 -8.0136
ltoes -8.63351
4
root -36.8509 17.4878 -1.28152 -16.7126 82.6056 -15.9793
lowerback 13.8429 -1.62459 -1.44517
upperback 4.63035 -2.04575 2.32487
thorax -2.73465 -0.949266 3.56955
lowerneck -2.11349 4.74074 -1.25117
upperneck -7.26505 6.2317 -4.35351
head -1.80408 3.28093 -1.20907
rclavicle -2.3556e-014 2.8625e-014
rhumerus -39.9131 10.2187 -80.0768
rradius 36.9968
rwrist 2.95936
rhand -7.64128 -17.4789
rfingers 7.12502
rthumb 18.254 -46.6424
lclavicle -2.3556e-014 2.8625e-014
lhumerus -44.7844 3.37687 81.0678
lradius 51.226
lwrist 0.757485
lhand 2.31444 11.8809
lfingers 7.12502
lthumb 27.8053 39.8439
rfemur 3.26535 11.2561 25.2984
rtibia 22.1446
rfoot -27.3034 -4.25437
rtoes 13.0756
lfemur -17.7075 -3.06917 -12.4698
ltibia 31.9202
lfoot -18.2238 -7.97578
ltoes -8.58525
5
root -36.851 17.4885 -1.28394 -16.552 82.5001 -15.8544
lowerback 13.8767 -1.60774 -1.43869
upperback 4.60763 -2.02387 2.31685
thorax -2.77885 -0.937798 3.55588
lowerneck -2.51914 4.67496 -1.60098
upperneck -6.81912 6.18703 -3.91193
head -1.6153 3.24467 -0.989546
rclavicle 2.22639e-014 -1.47101e-014
rhumerus -40.0994 10.7512 -80.3437
rradius 37.0566
rwrist 3.12143
rhand -7.62454 -17.2488
rfingers 7.12502
rthumb 18.2701 -46.4108
lclavicle 2.22639e-014 -1.47101e-014
lhumerus -45.0599 3.33314 81.1875
lradius 51.4263
lwrist 0.898123
lhand 1.9803 11.7422
lfingers 7.12502
lthumb 27.4857 39.7564
rfemur 3.20308 11.3514 25.2977
rtibia 22.1643
rfoot -27.1587 -4.22731
rtoes 12.8888
lfemur -17.7431 -3.03889 -12.4592
ltibia 31.9361
lfoot -18.2128 -7.88811
ltoes -8.61436
6
root -36.8506 17.489 -1.28604 -16.3617 82.4115 -15.6903
lowerback 13.8906 -1.59254 -1.44119
upperback 4.60003 -2.00529 2.30267
thorax -2.7961 -0.928404 3.54018
lowerneck -2.31488 4.73074 -1.32884
upperneck -7.05809 6.23325 -4.25819
head -1.70766 3.27516 -1.15448
rclavicle -2.50966e-014 -2.42517e-014
rhumerus -40.2558 11.2888 -80.6322
rradius 37.084
rwrist 3.1553
rhand -7.73775 -17.2493
rfingers 7.12502
rthumb 18.1612 -46.4215
lclavicle -2.50966e-014 -2.42517e-014
lhumerus -45.2873 3.2701 81.2946
lradius 51.6115
lwrist 1.04822
lhand 1.70987 11.6763
lfingers 7.12502
lthumb 27.2271 39.7313
rfemur 3.15676 11.4055 25.2833
rtibia 22.1802
rfoot -27.041 -4.18856
rtoes 12.683
lfemur -17.7591 -3.01542 -12.4564
ltibia 31.9571
lfoot -18.216 -7.81652
ltoes -8.61566
7
root -36.8501 17.4895 -1.28836 -16.1675 82.3119 -15.5224
lowerback 13.9094 -1.57395 -1.44019
upperback 4.58974 -1.98184 2.28884
thorax -2.81934 -0.916484 3.52235
lowerneck -2.18773 4.76606 -1.14766
upperneck -7.2043 6.26212 -4.4903
head -1.7637 3.29437 -1.26502
rclavicle -2.24627e-014 2.62396e-014
rhumerus -40.4318 11.8046 -80.9107
rradius 37.1333
rwrist 3.18499
rhand -7.79921 -17.2188
rfingers 7.12502
rthumb 18.102 -46.3965
lclavicle -2.24627e-014 2.62396e-014
lhumerus -45.5328 3.21191 81.4089
lradius 51.7906
lwrist 1.18645
lhand 1.41722 11.5991
lfingers 7.12502
lthumb 26.9471 39.6976
rfemur 3.11033 11.4654 25.2694
rtibia 22.1934
rfoot -26.9192 -4.14596
rtoes 12.4577
lfemur -17.7748 -2.98503 -12.4517
ltibia 31.981
lfoot -18.221 -7.74074
ltoes -8.61843
8
root -36.8494 17.49 -1.29076 -15.9825 82.2079 -15.3644
lowerback 13.929 -1.55234 -1.43493
upperback 4.57731 -1.95397 2.27358
thorax -2.84569 -0.902326 3.49995
lowerneck -2.11492 4.78504 -1.03559
upperneck -7.28255 6.27682 -4.62732
head -1.79376 3.30422 -1.33113
rclavicle 3.8763e-015 -2.66371e-014
rhumerus -40.6119 12.265 -81.1695
rradius 37.1751
rwrist 3.21175
rhand -7.81078 -17.1526
rfingers 7.12502
rthumb 18.0909 -46.3313
lclavicle 3.8763e-015 -2.66371e-014
lhumerus -45.7931 3.14715 81.5291
lradius 51.9572
lwrist 1.31623
lhand 1.11405 11.5045
lfingers 7.12502
lthumb 26.657 39.6475
rfemur 3.06383 11.5301 25.258
rtibia 22.2075
rfoot -26.8016 -4.10172
rtoes 12.2536
lfemur -17.7872 -2.95291 -12.4447
ltibia 31.9998
lfoot -18.2243 -7.66307
ltoes -8.6204
9
root -36.8485 17.4907 -1.29328 -15.7906 82.0954 -15.2016
lowerback 13.9477 -1.52617 -1.42667
upperback 4.5627 -1.91986 2.25692
thorax -2.87445 -0.885059 3.4734
lowerneck -2.08622 4.78955 -0.979111
upperneck -7.30052 6.27854 -4.68436
head -1.80106 3.30545 -1.35985
rclavicle 1.799e-014 -1.09332e-014
rhumerus -40.7957 12.6737 -81.4103
rradius 37.2097
rwrist 3.21602
rhand -7.78944 -17.0678
rfingers 7.12502
rthumb 18.1114 -46.2446
lclavicle 1.799e-014 -1.09332e-014
lhumerus -46.0656 3.07569 81.6552
lradius 52.1078
lwrist 1.43761
lhand 0.813966 11.3985
lfingers 7.12502
lthumb 26.3698 39.5849
rfemur 3.01675 11.5975 25.2454
rtibia 22.2163
rfoot -26.6811 -4.04883
rtoes 12.0601
lfemur -17.8002 -2.91527 -12.4368
ltibia 32.0191
lfoot -18.2268 -7.58017
ltoes -8.62122
10
root -36.8472 17.4913 -1.29585 -15.5916 81.9816 -15.0315
lowerback 13.9633 -1.49707 -1.41768
upperback 4.5487 -1.8819 2.2384
thorax -2.90125 -0.86592 3.44371
lowerneck -2.04736 4.79207 -0.916416
upperneck -7.31892 6.27732 -4.7389
head -1.81023 3.30505 -1.38919
rclavicle 2.4202e-014 -8.15017e-015
rhumerus -40.9782 13.0289 -81.6331
rradius 37.2307
rwrist 3.19295
rhand -7.74217 -16.9761
rfingers 7.12502
rthumb 18.1569 -46.1487
lclavicle 2.4202e-014 -8.15017e-015
lhumerus -46.3462 2.99648 81.7861
lradius 52.2411
lwrist 1.55758
lhand 0.532104 11.2884
lfingers 7.12502
lthumb 26.0999 39.5149
rfemur 2.97337 11.6647 25.2313
rtibia 22.2204
rfoot -26.5689 -3.99956
rtoes 11.8517
lfemur -17.8094 -2.87779 -12.4301
ltibia 32.037
lfoot -18.2301 -7.49672
ltoes -8.61707
